<?xml version="1.0" encoding="UTF-8"?>
<svg version="1.1" xmlns="http://www.w3.org/2000/svg" width="50" height="50">
<path d="M0 0 C-0.125 2.25 -0.125 2.25 -1 5 C-5.14537249 8.55317642 -8.60668997 9.5685352 -14 10 C-13.01 13.63 -12.02 17.26 -11 21 C-10.31292969 20.4225 -9.62585937 19.845 -8.91796875 19.25 C-8.01691406 18.5075 -7.11585937 17.765 -6.1875 17 C-5.29417969 16.2575 -4.40085938 15.515 -3.48046875 14.75 C-1 13 -1 13 2 13 C2.10815225 14.76949095 2.18566083 16.54087487 2.25 18.3125 C2.29640625 19.29863281 2.3428125 20.28476562 2.390625 21.30078125 C2 24 2 24 0.03125 25.65625 C-0.6390625 26.0996875 -1.309375 26.543125 -2 27 C-2.80946422 30.10197397 -2.80946422 30.10197397 -3 33 C-4.98 33.495 -4.98 33.495 -7 34 C-7.33 35.32 -7.66 36.64 -8 38 C-8.66 38 -9.32 38 -10 38 C-10.63394697 42.04141194 -11.12404452 45.9065307 -11 50 C-12.258125 50.04125 -13.51625 50.0825 -14.8125 50.125 C-15.52019531 50.14820313 -16.22789063 50.17140625 -16.95703125 50.1953125 C-19 50 -19 50 -22 48 C-22 47.34 -22 46.68 -22 46 C-23.98 46 -25.96 46 -28 46 C-28.33 46.99 -28.66 47.98 -29 49 C-32.21451269 50.60725635 -35.43612536 50.05748185 -39 50 C-38.9690625 48.329375 -38.9690625 48.329375 -38.9375 46.625 C-38.73619282 43.16784079 -38.73619282 43.16784079 -40 41 C-40.12578482 38.27953756 -40.18518644 35.59575056 -40.1875 32.875 C-40.19974609 32.14023437 -40.21199219 31.40546875 -40.22460938 30.6484375 C-40.23834235 25.44821792 -39.43411144 20.99955057 -38 16 C-38.99 16.66 -39.98 17.32 -41 18 C-43.33199388 18.07905064 -45.66832622 18.08798769 -48 18 C-47.5132738 13.72270913 -46.42203651 11.97941484 -43.125 9.25 C-42.42632812 8.65703125 -41.72765625 8.0640625 -41.0078125 7.453125 C-37.51345192 4.92413252 -34.40198234 4.88654388 -30.19921875 4.75952148 C-23.18863381 4.53627855 -17.64012056 3.90796975 -11.2265625 0.85546875 C-7.45141646 -0.5949821 -3.99517034 -0.25775293 0 0 Z M-16 6 C-16 6.33 -16 6.66 -16 7 C-13.36 6.67 -10.72 6.34 -8 6 C-8 5.34 -8 4.68 -8 4 C-11.20395416 4 -13.09399739 4.74335022 -16 6 Z M-33 8 C-33.20625 9.753125 -33.4125 11.50625 -33.625 13.3125 C-33.79902344 14.79169922 -33.79902344 14.79169922 -33.9765625 16.30078125 C-34.25476995 19.22657416 -34.25476995 19.22657416 -32 22 C-31.5859375 25.13671875 -31.5859375 25.13671875 -31.375 28.6875 C-31.30023437 29.86699219 -31.22546875 31.04648437 -31.1484375 32.26171875 C-31.09945313 33.16535156 -31.05046875 34.06898437 -31 35 C-32.98 35.33 -34.96 35.66 -37 36 C-36.42547254 39.93075644 -36.42547254 39.93075644 -34 43 C-27.45856318 44.23086216 -21.16842098 44.68192216 -15 42 C-14.34 41.01 -13.68 40.02 -13 39 C-13.33 38.01 -13.66 37.02 -14 36 C-15.65 35.67 -17.3 35.34 -19 35 C-19.125 28.25 -19.125 28.25 -18 26 C-17.34 26.33 -16.68 26.66 -16 27 C-16.33 28.98 -16.66 30.96 -17 33 C-16.34 33 -15.68 33 -15 33 C-12.96315288 28.92630576 -12.9742741 26.41062136 -14 22 C-15.65 22.66 -17.3 23.32 -19 24 C-18.484375 23.34 -17.96875 22.68 -17.4375 22 C-15.11582352 17.15476213 -16.3188633 13.04341009 -18 8 C-22.95 8 -27.9 8 -33 8 Z M-38 9 C-39.63676257 10.9600281 -39.63676257 10.9600281 -41 13 C-37.87802522 11.6910428 -37.87802522 11.6910428 -36 9 C-36.66 9 -37.32 9 -38 9 Z M-5.69921875 20.2890625 C-8.12188188 23.47562842 -7.4473828 27.1972462 -7 31 C-6.67 31 -6.34 31 -6 31 C-6 28.69 -6 26.38 -6 24 C-4.02 23.34 -2.04 22.68 0 22 C0 20.35 0 18.7 0 17 C-2.30369111 17 -4.01300852 18.89663114 -5.69921875 20.2890625 Z M-36 23 C-37.15837626 27.05431692 -36.83691257 29.21812119 -35 33 C-34.34 33 -33.68 33 -33 33 C-33.185625 31.88625 -33.37125 30.7725 -33.5625 29.625 C-34 26 -34 26 -33 24 C-33.99 23.67 -34.98 23.34 -36 23 Z " fill="#000000" transform="translate(48,0)"/>
<path d="M0 0 C0.99 0 1.98 0 3 0 C3 0.99 3 1.98 3 3 C2.01 3 1.02 3 0 3 C0 2.01 0 1.02 0 0 Z " fill="#000000" transform="translate(27,14)"/>
<path d="M0 0 C0.99 0 1.98 0 3 0 C3 0.99 3 1.98 3 3 C2.01 3 1.02 3 0 3 C0 2.01 0 1.02 0 0 Z " fill="#000000" transform="translate(16,14)"/>
<path d="M0 0 C0.66 0 1.32 0 2 0 C2 0.66 2 1.32 2 2 C1.34 2 0.68 2 0 2 C0 1.34 0 0.68 0 0 Z " fill="#000000" transform="translate(22,17)"/>
</svg>
